<svg width="549" height="638" viewBox="0 0 549 638" fill="none" xmlns="http://www.w3.org/2000/svg">
<path d="M532.118 312.971L57.9231 6.00473C46.7111 -1.25424 32.4291 -1.80403 20.6844 4.56704C8.94452 10.9405 1.62473 23.218 1.60283 36.5756L0.690597 601.447C0.666271 616.945 10.4357 630.77 25.0558 635.922C29.0283 637.324 33.12 638 37.1728 638C48.032 638 58.5848 633.142 65.6443 624.336C65.6443 624.336 153 462.5 239.468 407.586C325.936 352.672 515.924 379.907 515.924 379.907C531.347 378.363 544.111 367.243 547.755 352.18C551.399 337.117 545.13 321.393 532.118 312.971Z" fill="black"/>
</svg>
